<svg width="200" height="60" viewBox="0 0 200 60" xmlns="http://www.w3.org/2000/svg">
  <!-- Logo Background Circle -->
  <circle cx="30" cy="30" r="22" fill="#10B981" stroke="#065F46" stroke-width="2"/>

  <!-- Health Shield Icon -->
  <path d="M30 12 L24 16 C20 18 20 22 20 26 C20 35 30 42 30 42 C30 42 40 35 40 26 C40 22 40 18 36 16 L30 12 Z" fill="white"/>

  <!-- Heart Symbol in Shield -->
  <path d="M26 22 C26 20 28 18 30 18 C32 18 34 20 34 22 C34 24 30 28 30 28 C30 28 26 24 26 22 Z" fill="#10B981"/>

  <!-- Plus Symbol -->
  <rect x="29" y="19" width="2" height="8" fill="white"/>
  <rect x="25" y="23" width="10" height="2" fill="white"/>

  <!-- Company Name -->
  <text x="65" y="25" font-family="Inter, -apple-system, sans-serif" font-size="18" font-weight="600" fill="#111827">
    Preventli
  </text>

  <!-- Tagline -->
  <text x="65" y="42" font-family="Inter, -apple-system, sans-serif" font-size="11" font-weight="400" fill="#6B7280">
    Employee Health Intelligence
  </text>
</svg>